<svg width="250" height="246" viewBox="0 0 250 246" fill="none" xmlns="http://www.w3.org/2000/svg">
<path d="M161.363 72.4997C172.785 72.4997 182.045 81.7593 182.046 93.1813V161.363C182.046 172.785 172.785 182.046 161.363 182.046H156.477V200.327L152.519 197.485L131.014 182.046H43.1813C31.7594 182.045 22.4997 172.785 22.4997 161.363V93.1813C22.5 81.7595 31.7595 72.5 43.1813 72.4997H161.363ZM43.1813 74.9997C33.1402 75 25 83.1402 24.9997 93.1813V161.363C24.9997 171.248 32.888 179.29 42.7126 179.539L43.1813 179.546H131.818L153.977 195.454V179.546H161.363L161.833 179.539C171.501 179.294 179.294 171.501 179.539 161.833L179.546 161.363V93.1813C179.545 83.14 171.404 74.9997 161.363 74.9997H43.1813Z" fill="url(#paint0_linear_70_395)"/>
<path d="M59.0821 134.349C57.8821 134.349 56.9421 134.002 56.2621 133.309C55.5954 132.629 55.2621 131.749 55.2621 130.669V129.009C55.2621 128.449 55.1888 127.996 55.0421 127.649C54.9088 127.289 54.7021 127.029 54.4221 126.869C54.1421 126.709 53.7954 126.629 53.3821 126.629V124.509C53.7954 124.509 54.1421 124.429 54.4221 124.269C54.7021 124.109 54.9088 123.856 55.0421 123.509C55.1888 123.149 55.2621 122.689 55.2621 122.129V120.469C55.2621 119.389 55.5954 118.509 56.2621 117.829C56.9421 117.136 57.8821 116.789 59.0821 116.789H60.2621V119.029C59.3688 119.002 58.7154 119.129 58.3021 119.409C57.9021 119.676 57.7021 120.122 57.7021 120.749V122.309C57.7021 123.256 57.4754 124.002 57.0221 124.549C56.5688 125.082 56.0354 125.402 55.4221 125.509V125.589C56.0488 125.696 56.5821 126.022 57.0221 126.569C57.4754 127.116 57.7021 127.869 57.7021 128.829V130.369C57.7021 131.022 57.9021 131.489 58.3021 131.769C58.7154 132.049 59.3688 132.176 60.2621 132.149V134.349H59.0821Z" fill="#FEFFFF"/>
<path d="M145.471 134.349H144.291V132.149C145.198 132.176 145.851 132.049 146.251 131.769C146.651 131.489 146.851 131.022 146.851 130.369V128.829C146.851 127.869 147.071 127.116 147.511 126.569C147.964 126.022 148.504 125.696 149.131 125.589V125.509C148.518 125.402 147.984 125.082 147.531 124.549C147.078 124.002 146.851 123.256 146.851 122.309V120.749C146.851 120.122 146.651 119.676 146.251 119.409C145.851 119.129 145.198 119.002 144.291 119.029V116.789H145.471C146.684 116.789 147.624 117.136 148.291 117.829C148.958 118.509 149.291 119.389 149.291 120.469V122.129C149.291 122.689 149.358 123.149 149.491 123.509C149.638 123.856 149.851 124.109 150.131 124.269C150.411 124.429 150.758 124.509 151.171 124.509V126.629C150.758 126.629 150.411 126.709 150.131 126.869C149.851 127.029 149.638 127.289 149.491 127.649C149.358 127.996 149.291 128.449 149.291 129.009V130.669C149.291 131.749 148.958 132.629 148.291 133.309C147.624 134.002 146.684 134.349 145.471 134.349Z" fill="#FEFFFF"/>
<path d="M97.302 133.091C97.1954 133.091 97.0994 133.054 97.014 132.979C96.9394 132.904 96.902 132.808 96.902 132.691V122.291C96.902 122.174 96.9394 122.078 97.014 122.003C97.0994 121.928 97.1954 121.891 97.302 121.891H98.79C98.95 121.891 99.0674 121.934 99.142 122.019C99.2274 122.104 99.286 122.168 99.318 122.211L102.262 127.635L105.238 122.211C105.259 122.168 105.307 122.104 105.382 122.019C105.467 121.934 105.59 121.891 105.75 121.891H107.238C107.355 121.891 107.451 121.928 107.526 122.003C107.601 122.078 107.638 122.174 107.638 122.291V132.691C107.638 132.808 107.601 132.904 107.526 132.979C107.451 133.054 107.355 133.091 107.238 133.091H105.606C105.499 133.091 105.409 133.054 105.334 132.979C105.259 132.904 105.222 132.808 105.222 132.691V126.227L103.19 130.035C103.137 130.131 103.067 130.216 102.982 130.291C102.897 130.366 102.785 130.403 102.646 130.403H101.894C101.755 130.403 101.643 130.366 101.558 130.291C101.473 130.216 101.403 130.131 101.35 130.035L99.318 126.227V132.691C99.318 132.808 99.2807 132.904 99.206 132.979C99.1314 133.054 99.0407 133.091 98.934 133.091H97.302Z" fill="url(#paint1_linear_70_395)"/>
<rect width="250" height="245.455" fill="#101010"/>
<path d="M180.596 52.9087C197.876 52.9088 211.311 67.1898 211.312 84.0904V152.272C211.312 167.226 200.792 180.127 186.399 182.901V212.09L165.688 196.829L147.536 183.455H65.4446C48.1647 183.454 34.7288 169.173 34.7288 152.272V84.0904C34.729 67.1898 48.1649 52.9089 65.4446 52.9087H180.596ZM65.4446 65.9087L64.9875 65.9146C55.4149 66.1634 47.729 74.2059 47.7288 84.0904V152.272C47.7288 162.157 55.4148 170.199 64.9875 170.448L65.4446 170.455H151.808L173.399 186.363V170.455H180.596L181.053 170.448C190.474 170.203 198.067 162.41 198.306 152.742L198.312 152.272V84.0904C198.312 74.2059 190.626 66.1634 181.053 65.9146L180.596 65.9087H65.4446Z" fill="url(#paint2_linear_70_395)"/>
<path d="M90.7052 161.53C84.9452 161.53 80.4332 159.866 77.1692 156.538C73.9692 153.274 72.3692 149.05 72.3692 143.866V135.898C72.3692 133.21 72.0172 131.034 71.3132 129.37C70.6732 127.642 69.6812 126.394 68.3372 125.626C66.9932 124.858 65.3292 124.474 63.3452 124.474V114.298C65.3292 114.298 66.9932 113.914 68.3372 113.146C69.6812 112.378 70.6732 111.162 71.3132 109.498C72.0172 107.77 72.3692 105.562 72.3692 102.874V94.9062C72.3692 89.7222 73.9692 85.4982 77.1692 82.2342C80.4332 78.9062 84.9452 77.2422 90.7052 77.2422H96.3692V87.9942C92.0812 87.8662 88.9452 88.4742 86.9612 89.8182C85.0412 91.0982 84.0812 93.2422 84.0812 96.2502V103.738C84.0812 108.282 82.9932 111.866 80.8172 114.49C78.6412 117.05 76.0812 118.586 73.1372 119.098V119.482C76.1452 119.994 78.7052 121.562 80.8172 124.186C82.9932 126.81 84.0812 130.426 84.0812 135.034V142.426C84.0812 145.562 85.0412 147.802 86.9612 149.146C88.9452 150.49 92.0812 151.098 96.3692 150.97V161.53H90.7052Z" fill="#F6F6F6"/>
<path d="M159.918 161.53H154.254V150.97C158.606 151.098 161.742 150.49 163.662 149.146C165.582 147.802 166.542 145.562 166.542 142.426V135.034C166.542 130.426 167.598 126.81 169.71 124.186C171.886 121.562 174.478 119.994 177.486 119.482V119.098C174.542 118.586 171.982 117.05 169.806 114.49C167.63 111.866 166.542 108.282 166.542 103.738V96.2502C166.542 93.2422 165.582 91.0982 163.662 89.8182C161.742 88.4742 158.606 87.8662 154.254 87.9942V77.2422H159.918C165.742 77.2422 170.254 78.9062 173.454 82.2342C176.654 85.4982 178.254 89.7222 178.254 94.9062V102.874C178.254 105.562 178.574 107.77 179.214 109.498C179.918 111.162 180.942 112.378 182.286 113.146C183.63 113.914 185.294 114.298 187.278 114.298V124.474C185.294 124.474 183.63 124.858 182.286 125.626C180.942 126.394 179.918 127.642 179.214 129.37C178.574 131.034 178.254 133.21 178.254 135.898V143.866C178.254 149.05 176.654 153.274 173.454 156.538C170.254 159.866 165.742 161.53 159.918 161.53Z" fill="#F6F6F6"/>
<path d="M102.304 144C101.81 144 101.366 143.827 100.972 143.482C100.626 143.137 100.454 142.693 100.454 142.15V94.05C100.454 93.5073 100.626 93.0633 100.972 92.718C101.366 92.3727 101.81 92.2 102.304 92.2H109.186C109.926 92.2 110.468 92.3973 110.814 92.792C111.208 93.1867 111.48 93.4827 111.628 93.68L125.244 118.766L139.008 93.68C139.106 93.4827 139.328 93.1867 139.674 92.792C140.068 92.3973 140.636 92.2 141.376 92.2H148.258C148.8 92.2 149.244 92.3727 149.59 92.718C149.935 93.0633 150.108 93.5073 150.108 94.05V142.15C150.108 142.693 149.935 143.137 149.59 143.482C149.244 143.827 148.8 144 148.258 144H140.71C140.216 144 139.797 143.827 139.452 143.482C139.106 143.137 138.934 142.693 138.934 142.15V112.254L129.536 129.866C129.289 130.31 128.968 130.705 128.574 131.05C128.179 131.395 127.661 131.568 127.02 131.568H123.542C122.9 131.568 122.382 131.395 121.988 131.05C121.593 130.705 121.272 130.31 121.026 129.866L111.628 112.254V142.15C111.628 142.693 111.455 143.137 111.11 143.482C110.764 143.827 110.345 144 109.852 144H102.304Z" fill="url(#paint3_linear_70_395)"/>
<defs>
<linearGradient id="paint0_linear_70_395" x1="102.273" y1="72.4997" x2="102.273" y2="200.327" gradientUnits="userSpaceOnUse">
<stop stop-color="#5094EB"/>
<stop offset="1" stop-color="#3527B2"/>
</linearGradient>
<linearGradient id="paint1_linear_70_395" x1="102.273" y1="84.0909" x2="102.273" y2="170.455" gradientUnits="userSpaceOnUse">
<stop stop-color="#5094EB"/>
<stop offset="1" stop-color="#3527B2"/>
</linearGradient>
<linearGradient id="paint2_linear_70_395" x1="123.02" y1="63.4087" x2="123.02" y2="191.311" gradientUnits="userSpaceOnUse">
<stop stop-color="#5094EB"/>
<stop offset="1" stop-color="#3527B2"/>
</linearGradient>
<linearGradient id="paint3_linear_70_395" x1="125.293" y1="75" x2="125.293" y2="161.364" gradientUnits="userSpaceOnUse">
<stop stop-color="#5094EB"/>
<stop offset="1" stop-color="#3527B2"/>
</linearGradient>
</defs>
</svg>
