<svg width="250" height="246" viewBox="0 0 250 246" fill="none" xmlns="http://www.w3.org/2000/svg">
<path d="M161.363 72.4996C172.785 72.4996 182.045 81.7593 182.046 93.1813V161.363C182.046 172.785 172.785 182.046 161.363 182.046H156.477V200.327L152.519 197.485L131.014 182.046H43.1813C31.7593 182.045 22.4996 172.785 22.4996 161.363V93.1813C22.4999 81.7595 31.7595 72.4999 43.1813 72.4996H161.363ZM43.1813 74.9996C33.1402 74.9999 24.9999 83.1402 24.9996 93.1813V161.363C24.9996 171.248 32.8879 179.29 42.7125 179.539L43.1813 179.546H131.818L153.977 195.454V179.546H161.363L161.833 179.539C171.501 179.294 179.294 171.501 179.539 161.833L179.546 161.363V93.1813C179.545 83.14 171.404 74.9996 161.363 74.9996H43.1813Z" fill="url(#paint0_linear_70_411)"/>
<path d="M67.6849 170.621C61.9249 170.621 57.4129 168.957 54.1489 165.629C50.9489 162.365 49.3489 158.141 49.3489 152.957V144.989C49.3489 142.301 48.9969 140.125 48.2929 138.461C47.6529 136.733 46.6609 135.485 45.3169 134.717C43.9729 133.949 42.3089 133.565 40.3249 133.565V123.389C42.3089 123.389 43.9729 123.005 45.3169 122.237C46.6609 121.469 47.6529 120.253 48.2929 118.589C48.9969 116.861 49.3489 114.653 49.3489 111.965V103.997C49.3489 98.8131 50.9489 94.5891 54.1489 91.3251C57.4129 87.9971 61.9249 86.3331 67.6849 86.3331H73.3489V97.0851C69.0609 96.9571 65.9249 97.5651 63.9409 98.9091C62.0209 100.189 61.0609 102.333 61.0609 105.341V112.829C61.0609 117.373 59.9729 120.957 57.7969 123.581C55.6209 126.141 53.0609 127.677 50.1169 128.189V128.573C53.1249 129.085 55.6849 130.653 57.7969 133.277C59.9729 135.901 61.0609 139.517 61.0609 144.125V151.517C61.0609 154.653 62.0209 156.893 63.9409 158.237C65.9249 159.581 69.0609 160.189 73.3489 160.061V170.621H67.6849Z" fill="#333435"/>
<path d="M136.898 170.621H131.234V160.061C135.586 160.189 138.722 159.581 140.642 158.237C142.562 156.893 143.522 154.653 143.522 151.517V144.125C143.522 139.517 144.578 135.901 146.69 133.277C148.866 130.653 151.458 129.085 154.466 128.573V128.189C151.522 127.677 148.962 126.141 146.786 123.581C144.61 120.957 143.522 117.373 143.522 112.829V105.341C143.522 102.333 142.562 100.189 140.642 98.9091C138.722 97.5651 135.586 96.9571 131.234 97.0851V86.3331H136.898C142.722 86.3331 147.234 87.9971 150.434 91.3251C153.634 94.5891 155.234 98.8131 155.234 103.997V111.965C155.234 114.653 155.554 116.861 156.194 118.589C156.898 120.253 157.922 121.469 159.266 122.237C160.61 123.005 162.274 123.389 164.258 123.389V133.565C162.274 133.565 160.61 133.949 159.266 134.717C157.922 135.485 156.898 136.733 156.194 138.461C155.554 140.125 155.234 142.301 155.234 144.989V152.957C155.234 158.141 153.634 162.365 150.434 165.629C147.234 168.957 142.722 170.621 136.898 170.621Z" fill="#333435"/>
<path d="M97.302 133.091C97.1953 133.091 97.0993 133.054 97.014 132.979C96.9393 132.904 96.902 132.808 96.902 132.691V122.291C96.902 122.174 96.9393 122.078 97.014 122.003C97.0993 121.928 97.1953 121.891 97.302 121.891H98.79C98.95 121.891 99.0673 121.934 99.142 122.019C99.2273 122.104 99.286 122.168 99.318 122.211L102.262 127.635L105.238 122.211C105.259 122.168 105.307 122.104 105.382 122.019C105.467 121.934 105.59 121.891 105.75 121.891H107.238C107.355 121.891 107.451 121.928 107.526 122.003C107.601 122.078 107.638 122.174 107.638 122.291V132.691C107.638 132.808 107.601 132.904 107.526 132.979C107.451 133.054 107.355 133.091 107.238 133.091H105.606C105.499 133.091 105.409 133.054 105.334 132.979C105.259 132.904 105.222 132.808 105.222 132.691V126.227L103.19 130.035C103.137 130.131 103.067 130.216 102.982 130.291C102.897 130.366 102.785 130.403 102.646 130.403H101.894C101.755 130.403 101.643 130.366 101.558 130.291C101.473 130.216 101.403 130.131 101.35 130.035L99.318 126.227V132.691C99.318 132.808 99.2806 132.904 99.206 132.979C99.1313 133.054 99.0406 133.091 98.934 133.091H97.302Z" fill="url(#paint1_linear_70_411)"/>
<rect width="250" height="245.455" fill="white"/>
<path d="M184.09 52.9088C201.311 52.9088 215.273 66.8694 215.273 84.0904V152.272C215.273 167.577 204.246 180.305 189.704 182.949V211.7L169.122 196.923L150.363 183.455H65.9086C48.6876 183.454 34.7269 169.493 34.7269 152.272V84.0904C34.7272 66.8696 48.6877 52.909 65.9086 52.9088H184.09ZM65.9086 65.9088C55.8674 65.909 47.7272 74.0493 47.7269 84.0904V152.272C47.7269 162.157 55.6152 170.199 65.4398 170.448L65.9086 170.455H154.545L176.704 186.363V170.455H184.09L184.56 170.448C194.229 170.203 202.021 162.41 202.266 152.742L202.273 152.272V84.0904C202.273 74.0491 194.132 65.9088 184.09 65.9088H65.9086Z" fill="#242424"/>
<path d="M90.4122 161.53C84.6522 161.53 80.1402 159.866 76.8762 156.538C73.6762 153.274 72.0762 149.05 72.0762 143.866V135.898C72.0762 133.21 71.7242 131.034 71.0202 129.37C70.3802 127.642 69.3882 126.394 68.0442 125.626C66.7002 124.858 65.0362 124.474 63.0522 124.474V114.298C65.0362 114.298 66.7002 113.914 68.0442 113.146C69.3882 112.378 70.3802 111.162 71.0202 109.498C71.7242 107.77 72.0762 105.562 72.0762 102.874V94.9062C72.0762 89.7222 73.6762 85.4982 76.8762 82.2342C80.1402 78.9062 84.6522 77.2422 90.4122 77.2422H96.0762V87.9942C91.7882 87.8662 88.6522 88.4742 86.6682 89.8182C84.7482 91.0982 83.7882 93.2422 83.7882 96.2502V103.738C83.7882 108.282 82.7002 111.866 80.5242 114.49C78.3482 117.05 75.7882 118.586 72.8442 119.098V119.482C75.8522 119.994 78.4122 121.562 80.5242 124.186C82.7002 126.81 83.7882 130.426 83.7882 135.034V142.426C83.7882 145.562 84.7482 147.802 86.6682 149.146C88.6522 150.49 91.7882 151.098 96.0762 150.97V161.53H90.4122Z" fill="#357CFF"/>
<path d="M159.625 161.53H153.961V150.97C158.313 151.098 161.449 150.49 163.369 149.146C165.289 147.802 166.249 145.562 166.249 142.426V135.034C166.249 130.426 167.305 126.81 169.417 124.186C171.593 121.562 174.185 119.994 177.193 119.482V119.098C174.249 118.586 171.689 117.05 169.513 114.49C167.337 111.866 166.249 108.282 166.249 103.738V96.2502C166.249 93.2422 165.289 91.0982 163.369 89.8182C161.449 88.4742 158.313 87.8662 153.961 87.9942V77.2422H159.625C165.449 77.2422 169.961 78.9062 173.161 82.2342C176.361 85.4982 177.961 89.7222 177.961 94.9062V102.874C177.961 105.562 178.281 107.77 178.921 109.498C179.625 111.162 180.649 112.378 181.993 113.146C183.337 113.914 185.001 114.298 186.985 114.298V124.474C185.001 124.474 183.337 124.858 181.993 125.626C180.649 126.394 179.625 127.642 178.921 129.37C178.281 131.034 177.961 133.21 177.961 135.898V143.866C177.961 149.05 176.361 153.274 173.161 156.538C169.961 159.866 165.449 161.53 159.625 161.53Z" fill="#357CFF"/>
<path d="M102.011 144C101.517 144 101.073 143.827 100.679 143.482C100.333 143.137 100.161 142.693 100.161 142.15V94.05C100.161 93.5073 100.333 93.0633 100.679 92.718C101.073 92.3727 101.517 92.2 102.011 92.2H108.893C109.633 92.2 110.175 92.3973 110.521 92.792C110.915 93.1867 111.187 93.4827 111.335 93.68L124.951 118.766L138.715 93.68C138.813 93.4827 139.035 93.1867 139.381 92.792C139.775 92.3973 140.343 92.2 141.083 92.2H147.965C148.507 92.2 148.951 92.3727 149.297 92.718C149.642 93.0633 149.815 93.5073 149.815 94.05V142.15C149.815 142.693 149.642 143.137 149.297 143.482C148.951 143.827 148.507 144 147.965 144H140.417C139.923 144 139.504 143.827 139.159 143.482C138.813 143.137 138.641 142.693 138.641 142.15V112.254L129.243 129.866C128.996 130.31 128.675 130.705 128.281 131.05C127.886 131.395 127.368 131.568 126.727 131.568H123.249C122.607 131.568 122.089 131.395 121.695 131.05C121.3 130.705 120.979 130.31 120.733 129.866L111.335 112.254V142.15C111.335 142.693 111.162 143.137 110.817 143.482C110.471 143.827 110.052 144 109.559 144H102.011Z" fill="#242424"/>
<defs>
<linearGradient id="paint0_linear_70_411" x1="102.273" y1="72.4996" x2="102.273" y2="200.327" gradientUnits="userSpaceOnUse">
<stop stop-color="#5094EB"/>
<stop offset="1" stop-color="#3527B2"/>
</linearGradient>
<linearGradient id="paint1_linear_70_411" x1="102.273" y1="84.0909" x2="102.273" y2="170.455" gradientUnits="userSpaceOnUse">
<stop stop-color="#5094EB"/>
<stop offset="1" stop-color="#3527B2"/>
</linearGradient>
</defs>
</svg>
