<svg width="250" height="246" viewBox="0 0 250 246" fill="none" xmlns="http://www.w3.org/2000/svg">
<path d="M161.363 72.4996C172.785 72.4996 182.045 81.7593 182.046 93.1813V161.363C182.046 172.785 172.785 182.046 161.363 182.046H156.477V200.327L152.519 197.485L131.014 182.046H43.1813C31.7593 182.045 22.4996 172.785 22.4996 161.363V93.1813C22.4999 81.7595 31.7595 72.4999 43.1813 72.4996H161.363ZM43.1813 74.9996C33.1402 74.9999 24.9999 83.1402 24.9996 93.1813V161.363C24.9996 171.248 32.8879 179.29 42.7125 179.539L43.1813 179.546H131.818L153.977 195.454V179.546H161.363L161.833 179.539C171.501 179.294 179.294 171.501 179.539 161.833L179.546 161.363V93.1813C179.545 83.14 171.404 74.9996 161.363 74.9996H43.1813Z" fill="url(#paint0_linear_70_428)"/>
<path d="M59.0821 134.349C57.8821 134.349 56.9421 134.002 56.2621 133.309C55.5954 132.629 55.2621 131.749 55.2621 130.669V129.009C55.2621 128.449 55.1888 127.996 55.0421 127.649C54.9088 127.289 54.7021 127.029 54.4221 126.869C54.1421 126.709 53.7954 126.629 53.3821 126.629V124.509C53.7954 124.509 54.1421 124.429 54.4221 124.269C54.7021 124.109 54.9088 123.856 55.0421 123.509C55.1888 123.149 55.2621 122.689 55.2621 122.129V120.469C55.2621 119.389 55.5954 118.509 56.2621 117.829C56.9421 117.136 57.8821 116.789 59.0821 116.789H60.2621V119.029C59.3688 119.002 58.7154 119.129 58.3021 119.409C57.9021 119.676 57.7021 120.122 57.7021 120.749V122.309C57.7021 123.256 57.4754 124.002 57.0221 124.549C56.5688 125.082 56.0354 125.402 55.4221 125.509V125.589C56.0488 125.696 56.5821 126.022 57.0221 126.569C57.4754 127.116 57.7021 127.869 57.7021 128.829V130.369C57.7021 131.022 57.9021 131.489 58.3021 131.769C58.7154 132.049 59.3688 132.176 60.2621 132.149V134.349H59.0821Z" fill="#333435"/>
<path d="M145.471 134.349H144.291V132.149C145.198 132.176 145.851 132.049 146.251 131.769C146.651 131.489 146.851 131.022 146.851 130.369V128.829C146.851 127.869 147.071 127.116 147.511 126.569C147.964 126.022 148.504 125.696 149.131 125.589V125.509C148.518 125.402 147.984 125.082 147.531 124.549C147.078 124.002 146.851 123.256 146.851 122.309V120.749C146.851 120.122 146.651 119.676 146.251 119.409C145.851 119.129 145.198 119.002 144.291 119.029V116.789H145.471C146.684 116.789 147.624 117.136 148.291 117.829C148.958 118.509 149.291 119.389 149.291 120.469V122.129C149.291 122.689 149.358 123.149 149.491 123.509C149.638 123.856 149.851 124.109 150.131 124.269C150.411 124.429 150.758 124.509 151.171 124.509V126.629C150.758 126.629 150.411 126.709 150.131 126.869C149.851 127.029 149.638 127.289 149.491 127.649C149.358 127.996 149.291 128.449 149.291 129.009V130.669C149.291 131.749 148.958 132.629 148.291 133.309C147.624 134.002 146.684 134.349 145.471 134.349Z" fill="#333435"/>
<path d="M97.302 133.091C97.1954 133.091 97.0994 133.054 97.014 132.979C96.9394 132.904 96.902 132.808 96.902 132.691V122.291C96.902 122.174 96.9394 122.078 97.014 122.003C97.0994 121.928 97.1954 121.891 97.302 121.891H98.79C98.95 121.891 99.0674 121.934 99.142 122.019C99.2274 122.104 99.286 122.168 99.318 122.211L102.262 127.635L105.238 122.211C105.259 122.168 105.307 122.104 105.382 122.019C105.467 121.934 105.59 121.891 105.75 121.891H107.238C107.355 121.891 107.451 121.928 107.526 122.003C107.601 122.078 107.638 122.174 107.638 122.291V132.691C107.638 132.808 107.601 132.904 107.526 132.979C107.451 133.054 107.355 133.091 107.238 133.091H105.606C105.499 133.091 105.409 133.054 105.334 132.979C105.259 132.904 105.222 132.808 105.222 132.691V126.227L103.19 130.035C103.137 130.131 103.067 130.216 102.982 130.291C102.897 130.366 102.785 130.403 102.646 130.403H101.894C101.755 130.403 101.643 130.366 101.558 130.291C101.473 130.216 101.403 130.131 101.35 130.035L99.318 126.227V132.691C99.318 132.808 99.2807 132.904 99.206 132.979C99.1314 133.054 99.0407 133.091 98.934 133.091H97.302Z" fill="url(#paint1_linear_70_428)"/>
<rect width="250" height="245.455" fill="white"/>
<path d="M184.09 52.9088C201.311 52.9088 215.273 66.8694 215.273 84.0904V152.272C215.273 167.577 204.246 180.305 189.704 182.949V211.7L169.122 196.923L150.363 183.455H65.9086C48.6876 183.454 34.7269 169.493 34.7269 152.272V84.0904C34.7272 66.8696 48.6877 52.909 65.9086 52.9088H184.09ZM65.9086 65.9088C55.8674 65.909 47.7272 74.0493 47.7269 84.0904V152.272C47.7269 162.157 55.6152 170.199 65.4398 170.448L65.9086 170.455H154.545L176.704 186.363V170.455H184.09L184.56 170.448C194.229 170.203 202.021 162.41 202.266 152.742L202.273 152.272V84.0904C202.273 74.0491 194.132 65.9088 184.09 65.9088H65.9086Z" fill="url(#paint2_linear_70_428)"/>
<path d="M90.4122 161.53C84.6522 161.53 80.1402 159.866 76.8762 156.538C73.6762 153.274 72.0762 149.05 72.0762 143.866V135.898C72.0762 133.21 71.7242 131.034 71.0202 129.37C70.3802 127.642 69.3882 126.394 68.0442 125.626C66.7002 124.858 65.0362 124.474 63.0522 124.474V114.298C65.0362 114.298 66.7002 113.914 68.0442 113.146C69.3882 112.378 70.3802 111.162 71.0202 109.498C71.7242 107.77 72.0762 105.562 72.0762 102.874V94.9062C72.0762 89.7222 73.6762 85.4982 76.8762 82.2342C80.1402 78.9062 84.6522 77.2422 90.4122 77.2422H96.0762V87.9942C91.7882 87.8662 88.6522 88.4742 86.6682 89.8182C84.7482 91.0982 83.7882 93.2422 83.7882 96.2502V103.738C83.7882 108.282 82.7002 111.866 80.5242 114.49C78.3482 117.05 75.7882 118.586 72.8442 119.098V119.482C75.8522 119.994 78.4122 121.562 80.5242 124.186C82.7002 126.81 83.7882 130.426 83.7882 135.034V142.426C83.7882 145.562 84.7482 147.802 86.6682 149.146C88.6522 150.49 91.7882 151.098 96.0762 150.97V161.53H90.4122Z" fill="#333435"/>
<path d="M159.625 161.53H153.961V150.97C158.313 151.098 161.449 150.49 163.369 149.146C165.289 147.802 166.249 145.562 166.249 142.426V135.034C166.249 130.426 167.305 126.81 169.417 124.186C171.593 121.562 174.185 119.994 177.193 119.482V119.098C174.249 118.586 171.689 117.05 169.513 114.49C167.337 111.866 166.249 108.282 166.249 103.738V96.2502C166.249 93.2422 165.289 91.0982 163.369 89.8182C161.449 88.4742 158.313 87.8662 153.961 87.9942V77.2422H159.625C165.449 77.2422 169.961 78.9062 173.161 82.2342C176.361 85.4982 177.961 89.7222 177.961 94.9062V102.874C177.961 105.562 178.281 107.77 178.921 109.498C179.625 111.162 180.649 112.378 181.993 113.146C183.337 113.914 185.001 114.298 186.985 114.298V124.474C185.001 124.474 183.337 124.858 181.993 125.626C180.649 126.394 179.625 127.642 178.921 129.37C178.281 131.034 177.961 133.21 177.961 135.898V143.866C177.961 149.05 176.361 153.274 173.161 156.538C169.961 159.866 165.449 161.53 159.625 161.53Z" fill="#333435"/>
<path d="M102.011 144C101.517 144 101.073 143.827 100.679 143.482C100.333 143.137 100.161 142.693 100.161 142.15V94.05C100.161 93.5073 100.333 93.0633 100.679 92.718C101.073 92.3727 101.517 92.2 102.011 92.2H108.893C109.633 92.2 110.175 92.3973 110.521 92.792C110.915 93.1867 111.187 93.4827 111.335 93.68L124.951 118.766L138.715 93.68C138.813 93.4827 139.035 93.1867 139.381 92.792C139.775 92.3973 140.343 92.2 141.083 92.2H147.965C148.507 92.2 148.951 92.3727 149.297 92.718C149.642 93.0633 149.815 93.5073 149.815 94.05V142.15C149.815 142.693 149.642 143.137 149.297 143.482C148.951 143.827 148.507 144 147.965 144H140.417C139.923 144 139.504 143.827 139.159 143.482C138.813 143.137 138.641 142.693 138.641 142.15V112.254L129.243 129.866C128.996 130.31 128.675 130.705 128.281 131.05C127.886 131.395 127.368 131.568 126.727 131.568H123.249C122.607 131.568 122.089 131.395 121.695 131.05C121.3 130.705 120.979 130.31 120.733 129.866L111.335 112.254V142.15C111.335 142.693 111.162 143.137 110.817 143.482C110.471 143.827 110.052 144 109.559 144H102.011Z" fill="url(#paint3_linear_70_428)"/>
<defs>
<linearGradient id="paint0_linear_70_428" x1="102.273" y1="72.4996" x2="102.273" y2="200.327" gradientUnits="userSpaceOnUse">
<stop stop-color="#5094EB"/>
<stop offset="1" stop-color="#3527B2"/>
</linearGradient>
<linearGradient id="paint1_linear_70_428" x1="102.273" y1="84.0909" x2="102.273" y2="170.455" gradientUnits="userSpaceOnUse">
<stop stop-color="#5094EB"/>
<stop offset="1" stop-color="#3527B2"/>
</linearGradient>
<linearGradient id="paint2_linear_70_428" x1="125" y1="63.4088" x2="125" y2="191.236" gradientUnits="userSpaceOnUse">
<stop stop-color="#5094EB"/>
<stop offset="1" stop-color="#3527B2"/>
</linearGradient>
<linearGradient id="paint3_linear_70_428" x1="125" y1="75" x2="125" y2="161.364" gradientUnits="userSpaceOnUse">
<stop stop-color="#5094EB"/>
<stop offset="1" stop-color="#3527B2"/>
</linearGradient>
</defs>
</svg>
