<svg width="39" height="34" viewBox="0 0 39 34" fill="none" xmlns="http://www.w3.org/2000/svg">
<path d="M31.7305 0C35.3245 0 38.1279 2.97176 38.1279 6.5V21.5C38.1279 24.7219 35.7902 27.478 32.6475 27.9326V33.9473L28.6641 31.0127L24.5752 28H6.39746C2.8036 27.9998 0 25.0281 0 21.5V6.5C2.52584e-07 2.97188 2.8036 0.000193189 6.39746 0H31.7305ZM6.39746 2.5L6.19727 2.50488C4.13795 2.61199 2.5 4.35988 2.5 6.5V21.5C2.5 23.6401 4.13795 25.388 6.19727 25.4951L6.39746 25.5H25.3975L30.1475 29V25.5H31.7305C33.883 25.5 35.6279 23.7091 35.6279 21.5V6.5C35.6279 4.29086 33.883 2.5 31.7305 2.5H6.39746Z" fill="url(#paint0_linear_69_342)"/>
<path d="M11.8284 22.94C10.6284 22.94 9.68836 22.5933 9.00836 21.9C8.34169 21.22 8.00836 20.34 8.00836 19.26V17.6C8.00836 17.04 7.93503 16.5867 7.78836 16.24C7.65503 15.88 7.44836 15.62 7.16836 15.46C6.88836 15.3 6.54169 15.22 6.12836 15.22V13.1C6.54169 13.1 6.88836 13.02 7.16836 12.86C7.44836 12.7 7.65503 12.4467 7.78836 12.1C7.93503 11.74 8.00836 11.28 8.00836 10.72V9.06C8.00836 7.98 8.34169 7.1 9.00836 6.42C9.68836 5.72667 10.6284 5.38 11.8284 5.38H13.0084V7.62C12.115 7.59333 11.4617 7.72 11.0484 8C10.6484 8.26667 10.4484 8.71333 10.4484 9.34V10.9C10.4484 11.8467 10.2217 12.5933 9.76836 13.14C9.31503 13.6733 8.78169 13.9933 8.16836 14.1V14.18C8.79503 14.2867 9.32836 14.6133 9.76836 15.16C10.2217 15.7067 10.4484 16.46 10.4484 17.42V18.96C10.4484 19.6133 10.6484 20.08 11.0484 20.36C11.4617 20.64 12.115 20.7667 13.0084 20.74V22.94H11.8284Z" fill="#F6F6F6"/>
<path d="M27.3084 22.94H26.1284V20.74C27.035 20.7667 27.6884 20.64 28.0884 20.36C28.4884 20.08 28.6884 19.6133 28.6884 18.96V17.42C28.6884 16.46 28.9084 15.7067 29.3484 15.16C29.8017 14.6133 30.3417 14.2867 30.9684 14.18V14.1C30.355 13.9933 29.8217 13.6733 29.3684 13.14C28.915 12.5933 28.6884 11.8467 28.6884 10.9V9.34C28.6884 8.71333 28.4884 8.26667 28.0884 8C27.6884 7.72 27.035 7.59333 26.1284 7.62V5.38H27.3084C28.5217 5.38 29.4617 5.72667 30.1284 6.42C30.795 7.1 31.1284 7.98 31.1284 9.06V10.72C31.1284 11.28 31.195 11.74 31.3284 12.1C31.475 12.4467 31.6884 12.7 31.9684 12.86C32.2484 13.02 32.595 13.1 33.0084 13.1V15.22C32.595 15.22 32.2484 15.3 31.9684 15.46C31.6884 15.62 31.475 15.88 31.3284 16.24C31.195 16.5867 31.1284 17.04 31.1284 17.6V19.26C31.1284 20.34 30.795 21.22 30.1284 21.9C29.4617 22.5933 28.5217 22.94 27.3084 22.94Z" fill="#F6F6F6"/>
<path d="M14.5938 19.5C14.4871 19.5 14.3911 19.4627 14.3058 19.388C14.2311 19.3133 14.1938 19.2173 14.1938 19.1V8.7C14.1938 8.58267 14.2311 8.48667 14.3058 8.412C14.3911 8.33733 14.4871 8.3 14.5938 8.3H16.0818C16.2418 8.3 16.3591 8.34267 16.4338 8.428C16.5191 8.51333 16.5778 8.57733 16.6098 8.62L19.5538 14.044L22.5298 8.62C22.5511 8.57733 22.5991 8.51333 22.6738 8.428C22.7591 8.34267 22.8818 8.3 23.0418 8.3H24.5298C24.6471 8.3 24.7431 8.33733 24.8178 8.412C24.8924 8.48667 24.9298 8.58267 24.9298 8.7V19.1C24.9298 19.2173 24.8924 19.3133 24.8178 19.388C24.7431 19.4627 24.6471 19.5 24.5298 19.5H22.8978C22.7911 19.5 22.7004 19.4627 22.6258 19.388C22.5511 19.3133 22.5138 19.2173 22.5138 19.1V12.636L20.4818 16.444C20.4284 16.54 20.3591 16.6253 20.2738 16.7C20.1884 16.7747 20.0764 16.812 19.9378 16.812H19.1858C19.0471 16.812 18.9351 16.7747 18.8498 16.7C18.7644 16.6253 18.6951 16.54 18.6418 16.444L16.6098 12.636V19.1C16.6098 19.2173 16.5724 19.3133 16.4978 19.388C16.4231 19.4627 16.3324 19.5 16.2258 19.5H14.5938Z" fill="url(#paint1_linear_69_342)"/>
<defs>
<linearGradient id="paint0_linear_69_342" x1="19.064" y1="0" x2="19.064" y2="33.9473" gradientUnits="userSpaceOnUse">
<stop stop-color="#5094EB"/>
<stop offset="1" stop-color="#3527B2"/>
</linearGradient>
<linearGradient id="paint1_linear_69_342" x1="19.5645" y1="4.5" x2="19.5645" y2="23.5" gradientUnits="userSpaceOnUse">
<stop stop-color="#5094EB"/>
<stop offset="1" stop-color="#3527B2"/>
</linearGradient>
</defs>
</svg>
