<svg width="181" height="159" viewBox="0 0 181 159" fill="none" xmlns="http://www.w3.org/2000/svg">
<path d="M149.363 0C166.584 0 180.546 13.9606 180.546 31.1816V99.3633C180.546 114.668 169.519 127.396 154.978 130.04V158.791L134.396 144.015L115.636 130.546H31.1816C13.9606 130.546 0 116.584 0 99.3633V31.1816C0.000280003 13.9608 13.9608 0.00028193 31.1816 0H149.363ZM31.1816 13C21.1405 13.0003 13.0003 21.1405 13 31.1816V99.3633C13 109.248 20.8882 117.29 30.7129 117.539L31.1816 117.546H119.818L141.978 133.454V117.546H149.363L149.833 117.539C159.502 117.294 167.294 109.502 167.539 99.833L167.546 99.3633V31.1816C167.546 21.1403 159.405 13 149.363 13H31.1816Z" fill="url(#paint0_linear_70_438)"/>
<path d="M55.6853 108.621C49.9253 108.621 45.4133 106.957 42.1493 103.629C38.9493 100.365 37.3493 96.1414 37.3493 90.9574V82.9894C37.3493 80.3014 36.9973 78.1254 36.2933 76.4614C35.6533 74.7334 34.6613 73.4854 33.3173 72.7174C31.9733 71.9494 30.3093 71.5654 28.3253 71.5654V61.3894C30.3093 61.3894 31.9733 61.0054 33.3173 60.2374C34.6613 59.4694 35.6533 58.2534 36.2933 56.5894C36.9973 54.8614 37.3493 52.6534 37.3493 49.9654V41.9974C37.3493 36.8134 38.9493 32.5894 42.1493 29.3254C45.4133 25.9974 49.9253 24.3334 55.6853 24.3334H61.3493V35.0854C57.0613 34.9574 53.9253 35.5654 51.9413 36.9094C50.0213 38.1894 49.0613 40.3334 49.0613 43.3414V50.8294C49.0613 55.3734 47.9733 58.9574 45.7973 61.5814C43.6213 64.1414 41.0613 65.6774 38.1173 66.1894V66.5734C41.1253 67.0854 43.6853 68.6534 45.7973 71.2774C47.9733 73.9014 49.0613 77.5174 49.0613 82.1254V89.5174C49.0613 92.6534 50.0213 94.8934 51.9413 96.2374C53.9253 97.5814 57.0613 98.1894 61.3493 98.0614V108.621H55.6853Z" fill="#333435"/>
<path d="M124.898 108.621H119.234V98.0614C123.586 98.1894 126.722 97.5814 128.642 96.2374C130.562 94.8934 131.522 92.6534 131.522 89.5174V82.1254C131.522 77.5174 132.578 73.9014 134.69 71.2774C136.866 68.6534 139.458 67.0854 142.466 66.5734V66.1894C139.522 65.6774 136.962 64.1414 134.786 61.5814C132.61 58.9574 131.522 55.3734 131.522 50.8294V43.3414C131.522 40.3334 130.562 38.1894 128.642 36.9094C126.722 35.5654 123.586 34.9574 119.234 35.0854V24.3334H124.898C130.722 24.3334 135.234 25.9974 138.434 29.3254C141.634 32.5894 143.234 36.8134 143.234 41.9974V49.9654C143.234 52.6534 143.554 54.8614 144.194 56.5894C144.898 58.2534 145.922 59.4694 147.266 60.2374C148.61 61.0054 150.274 61.3894 152.258 61.3894V71.5654C150.274 71.5654 148.61 71.9494 147.266 72.7174C145.922 73.4854 144.898 74.7334 144.194 76.4614C143.554 78.1254 143.234 80.3014 143.234 82.9894V90.9574C143.234 96.1414 141.634 100.365 138.434 103.629C135.234 106.957 130.722 108.621 124.898 108.621Z" fill="#333435"/>
<path d="M67.2836 91.0912C66.7903 91.0912 66.3463 90.9186 65.9516 90.5732C65.6063 90.2279 65.4336 89.7839 65.4336 89.2412V41.1412C65.4336 40.5986 65.6063 40.1546 65.9516 39.8092C66.3463 39.4639 66.7903 39.2912 67.2836 39.2912H74.1656C74.9056 39.2912 75.4483 39.4886 75.7936 39.8832C76.1883 40.2779 76.4596 40.5739 76.6076 40.7712L90.2236 65.8572L103.988 40.7712C104.086 40.5739 104.308 40.2779 104.654 39.8832C105.048 39.4886 105.616 39.2912 106.356 39.2912H113.238C113.78 39.2912 114.224 39.4639 114.57 39.8092C114.915 40.1546 115.088 40.5986 115.088 41.1412V89.2412C115.088 89.7839 114.915 90.2279 114.57 90.5732C114.224 90.9186 113.78 91.0912 113.238 91.0912H105.69C105.196 91.0912 104.777 90.9186 104.432 90.5732C104.086 90.2279 103.914 89.7839 103.914 89.2412V59.3452L94.5156 76.9572C94.269 77.4012 93.9483 77.7959 93.5536 78.1412C93.159 78.4866 92.641 78.6592 91.9996 78.6592H88.5216C87.8803 78.6592 87.3623 78.4866 86.9676 78.1412C86.573 77.7959 86.2523 77.4012 86.0056 76.9572L76.6076 59.3452V89.2412C76.6076 89.7839 76.435 90.2279 76.0896 90.5732C75.7443 90.9186 75.325 91.0912 74.8316 91.0912H67.2836Z" fill="url(#paint1_linear_70_438)"/>
<defs>
<linearGradient id="paint0_linear_70_438" x1="90.2729" y1="10.5" x2="90.2729" y2="138.327" gradientUnits="userSpaceOnUse">
<stop stop-color="#5094EB"/>
<stop offset="1" stop-color="#3527B2"/>
</linearGradient>
<linearGradient id="paint1_linear_70_438" x1="90.2731" y1="22.0912" x2="90.2731" y2="108.455" gradientUnits="userSpaceOnUse">
<stop stop-color="#5094EB"/>
<stop offset="1" stop-color="#3527B2"/>
</linearGradient>
</defs>
</svg>
